<svg width="50" height="50" viewBox="0 0 50 50" fill="none" xmlns="http://www.w3.org/2000/svg">
<path d="M28.9062 13.2812H27.3438V14.8438H28.9062V13.2812Z" fill="#02A8A8"/>
<path d="M36.7188 13.2812H35.1562V14.8438H36.7188V13.2812Z" fill="#02A8A8"/>
<path d="M35.1562 17.1875H33.5938C33.5938 17.6019 33.4291 17.9993 33.1361 18.2924C32.8431 18.5854 32.4457 18.75 32.0312 18.75C31.6168 18.75 31.2194 18.5854 30.9264 18.2924C30.6334 17.9993 30.4688 17.6019 30.4688 17.1875H28.9062C28.9062 18.0163 29.2355 18.8112 29.8215 19.3972C30.4076 19.9833 31.2024 20.3125 32.0312 20.3125C32.8601 20.3125 33.6549 19.9833 34.241 19.3972C34.827 18.8112 35.1562 18.0163 35.1562 17.1875Z" fill="#02A8A8"/>
<path d="M10.1562 25.7812H8.59375C8.38655 25.7812 8.18784 25.6989 8.04132 25.5524C7.89481 25.4059 7.8125 25.2072 7.8125 25H6.25C6.25 25.6216 6.49693 26.2177 6.93647 26.6573C7.37601 27.0968 7.97215 27.3438 8.59375 27.3438V28.125H10.1562V27.3438C10.7779 27.3438 11.374 27.0968 11.8135 26.6573C12.2531 26.2177 12.5 25.6216 12.5 25C12.5 24.3784 12.2531 23.7823 11.8135 23.3427C11.374 22.9032 10.7779 22.6562 10.1562 22.6562H8.59375C8.38655 22.6562 8.18784 22.5739 8.04132 22.4274C7.89481 22.2809 7.8125 22.0822 7.8125 21.875C7.8125 21.6678 7.89481 21.4691 8.04132 21.3226C8.18784 21.1761 8.38655 21.0938 8.59375 21.0938H10.1562C10.3635 21.0938 10.5622 21.1761 10.7087 21.3226C10.8552 21.4691 10.9375 21.6678 10.9375 21.875H12.5C12.5 21.2534 12.2531 20.6573 11.8135 20.2177C11.374 19.7782 10.7779 19.5312 10.1562 19.5312V18.75H8.59375V19.5312C7.97215 19.5312 7.37601 19.7782 6.93647 20.2177C6.49693 20.6573 6.25 21.2534 6.25 21.875C6.25 22.4966 6.49693 23.0927 6.93647 23.5323C7.37601 23.9718 7.97215 24.2188 8.59375 24.2188H10.1562C10.3635 24.2188 10.5622 24.3011 10.7087 24.4476C10.8552 24.5941 10.9375 24.7928 10.9375 25C10.9375 25.2072 10.8552 25.4059 10.7087 25.5524C10.5622 25.6989 10.3635 25.7812 10.1562 25.7812Z" fill="#02A8A8"/>
<path d="M9.375 31.25C10.9202 31.25 12.4306 30.7918 13.7154 29.9333C15.0002 29.0749 16.0015 27.8548 16.5928 26.4272C17.1841 24.9997 17.3388 23.4288 17.0374 21.9134C16.7359 20.3979 15.9919 19.0058 14.8993 17.9132C13.8067 16.8206 12.4146 16.0766 10.8991 15.7751C9.38367 15.4737 7.81283 15.6284 6.38528 16.2197C4.95774 16.811 3.73759 17.8124 2.87914 19.0971C2.0207 20.3819 1.5625 21.8923 1.5625 23.4375C1.56477 25.5088 2.38861 27.4946 3.85324 28.9593C5.31788 30.4239 7.30369 31.2477 9.375 31.25ZM9.375 17.1875C10.6111 17.1875 11.8195 17.5541 12.8473 18.2408C13.8751 18.9276 14.6762 19.9037 15.1492 21.0457C15.6223 22.1878 15.7461 23.4444 15.5049 24.6568C15.2638 25.8692 14.6685 26.9828 13.7944 27.8569C12.9203 28.731 11.8067 29.3262 10.5943 29.5674C9.38193 29.8086 8.12527 29.6848 6.98323 29.2117C5.84119 28.7387 4.86507 27.9376 4.17831 26.9098C3.49156 25.882 3.125 24.6736 3.125 23.4375C3.12686 21.7805 3.78594 20.1918 4.95764 19.0201C6.12934 17.8484 7.71797 17.1894 9.375 17.1875Z" fill="#02A8A8"/>
<path d="M46.875 29.6875H45.7031C45.4577 29.1949 45.1701 28.7244 44.8438 28.2812C43.916 27.0514 42.7217 26.0478 41.3504 25.3458C39.9792 24.6438 38.4667 24.2617 36.9266 24.2281C36.8575 24.2214 36.7881 24.2183 36.7188 24.2188H35.9375V23.2703C37.2286 22.61 38.3318 21.634 39.1445 20.4329C39.9572 19.2319 40.4531 17.8449 40.5859 16.4008C40.5992 16.4008 40.6117 16.4062 40.625 16.4062C41.2466 16.4062 41.8427 16.1593 42.2823 15.7198C42.7218 15.2802 42.9688 14.6841 42.9688 14.0625C42.9688 13.4409 42.7218 12.8448 42.2823 12.4052C41.8427 11.9657 41.2466 11.7188 40.625 11.7188V10.1562C40.625 7.87705 39.7196 5.69119 38.1079 4.07955C36.4963 2.46791 34.3105 1.5625 32.0312 1.5625C29.752 1.5625 27.5662 2.46791 25.9545 4.07955C24.3429 5.69119 23.4375 7.87705 23.4375 10.1562V11.7188C22.8159 11.7188 22.2198 11.9657 21.7802 12.4052C21.3407 12.8448 21.0938 13.4409 21.0938 14.0625C21.0938 14.6841 21.3407 15.2802 21.7802 15.7198C22.2198 16.1593 22.8159 16.4062 23.4375 16.4062C23.4508 16.4062 23.4633 16.4016 23.4766 16.4008C23.6094 17.8449 24.1053 19.2319 24.918 20.4329C25.7307 21.634 26.8339 22.61 28.125 23.2703V24.2188H27.3438C27.2749 24.218 27.2061 24.2209 27.1375 24.2273C25.6292 24.2478 24.1454 24.6123 22.7992 25.293C21.3925 26.0016 20.1675 27.024 19.2188 28.2812C17.8951 30.0366 17.1818 32.1766 17.1875 34.375V37.5H15.625V34.375C15.625 33.9606 15.4604 33.5632 15.1674 33.2701C14.8743 32.9771 14.4769 32.8125 14.0625 32.8125H3.125C2.7106 32.8125 2.31317 32.9771 2.02015 33.2701C1.72712 33.5632 1.5625 33.9606 1.5625 34.375V37.5C1.56406 37.7751 1.63904 38.0448 1.77969 38.2812C1.63904 38.5177 1.56406 38.7874 1.5625 39.0625V42.1875C1.56406 42.4626 1.63904 42.7323 1.77969 42.9688C1.63904 43.2052 1.56406 43.4749 1.5625 43.75V46.875C1.5625 47.2894 1.72712 47.6868 2.02015 47.9799C2.31317 48.2729 2.7106 48.4375 3.125 48.4375H14.0625C14.3376 48.4359 14.6073 48.361 14.8438 48.2203C15.0802 48.361 15.3499 48.4359 15.625 48.4375H46.875C47.2894 48.4375 47.6868 48.2729 47.9799 47.9799C48.2729 47.6868 48.4375 47.2894 48.4375 46.875V31.25C48.4375 30.8356 48.2729 30.4382 47.9799 30.1451C47.6868 29.8521 47.2894 29.6875 46.875 29.6875ZM46.875 38.3516C45.9172 38.5153 45.0338 38.9722 44.3467 39.6592C43.6597 40.3463 43.2028 41.2297 43.0391 42.1875H28.125V39.0625C28.125 38.6481 27.9604 38.2507 27.6674 37.9576C27.3743 37.6646 26.9769 37.5 26.5625 37.5H25V35.0859C25.9578 34.9222 26.8412 34.4653 27.5283 33.7783C28.2153 33.0912 28.6722 32.2078 28.8359 31.25H43.0391C43.2028 32.2078 43.6597 33.0912 44.3467 33.7783C45.0338 34.4653 45.9172 34.9222 46.875 35.0859V38.3516ZM46.875 44.5312H39.0625V43.75H46.875V44.5312ZM28.125 43.75H32.8125V44.5312H28.125V43.75ZM34.375 43.75H37.5V46.875H34.375V43.75ZM25 33.4828V31.25H27.2328C27.0924 31.7869 26.8116 32.2768 26.4192 32.6692C26.0268 33.0616 25.5369 33.3424 25 33.4828ZM46.875 33.4828C46.3381 33.3424 45.8482 33.0616 45.4558 32.6692C45.0634 32.2768 44.7826 31.7869 44.6422 31.25H46.875V33.4828ZM43.5938 29.2188C43.7062 29.368 43.8039 29.5312 43.9062 29.6875H32.8125C32.8557 29.6874 32.8988 29.6837 32.9414 29.6766L37.6289 28.8953C37.7324 28.878 37.8313 28.84 37.9198 28.7837C38.0083 28.7273 38.0846 28.6537 38.144 28.5672C38.2034 28.4807 38.2448 28.3832 38.2657 28.2804C38.2866 28.1775 38.2866 28.0716 38.2656 27.9688L37.843 25.8594C38.9761 26.0111 40.0679 26.3861 41.055 26.9628C42.0421 27.5394 42.9051 28.3062 43.5938 29.2188ZM36.2336 25.7812L36.575 27.4875L33.7969 27.95L35.532 25.7812H36.2336ZM41.4062 14.0625C41.4062 14.2697 41.3239 14.4684 41.1774 14.6149C41.0309 14.7614 40.8322 14.8438 40.625 14.8438V13.2812C40.8322 13.2812 41.0309 13.3636 41.1774 13.5101C41.3239 13.6566 41.4062 13.8553 41.4062 14.0625ZM32.0312 3.125C33.8954 3.12707 35.6826 3.86852 37.0008 5.18669C38.319 6.50486 39.0604 8.29208 39.0625 10.1562V12.1914C38.0001 11.7718 37.1443 10.9526 36.6789 9.90938C36.6271 9.75375 36.5276 9.61838 36.3945 9.52247C36.2614 9.42655 36.1015 9.37496 35.9375 9.375C35.448 9.38559 34.9668 9.50385 34.5281 9.72137C34.0894 9.93889 33.704 10.2503 33.3992 10.6336C32.7704 9.98188 32.2906 9.2014 31.993 8.34609C31.9306 8.15953 31.8001 8.00338 31.6276 7.9088C31.4552 7.81423 31.2533 7.78821 31.0625 7.83594C28.8992 8.37656 26.4687 10.2398 25.0023 11.5078V10.1562C25.0044 8.29249 25.7455 6.50562 27.0632 5.18752C28.3809 3.86942 30.1675 3.12769 32.0312 3.125ZM22.6562 14.0625C22.6562 13.8553 22.7386 13.6566 22.8851 13.5101C23.0316 13.3636 23.2303 13.2812 23.4375 13.2812V14.8438C23.2303 14.8438 23.0316 14.7614 22.8851 14.6149C22.7386 14.4684 22.6562 14.2697 22.6562 14.0625ZM25 15.625V13.6133C25.7773 12.8742 28.4531 10.4367 30.7992 9.55078C31.2888 10.7414 32.1454 11.7447 33.2445 12.4148C33.4295 12.5053 33.6424 12.5198 33.8379 12.4552C34.0334 12.3907 34.1959 12.2523 34.2906 12.0695C34.5544 11.5923 34.9742 11.2202 35.4797 11.0156C36.2779 12.3757 37.5559 13.388 39.0625 13.8539V15.625C39.0625 17.4898 38.3217 19.2782 37.0031 20.5968C35.6845 21.9155 33.8961 22.6562 32.0312 22.6562C30.1664 22.6562 28.378 21.9155 27.0594 20.5968C25.7408 19.2782 25 17.4898 25 15.625ZM32.0312 24.2188C32.8241 24.2168 33.6129 24.1048 34.375 23.8859V24.7258L32.0312 27.6563L29.6875 24.7266V23.8859C30.4496 24.1048 31.2384 24.2168 32.0312 24.2188ZM28.5305 25.7812L30.2656 27.95L27.4875 27.4875L27.8289 25.7812H28.5305ZM18.75 34.375C18.7454 32.5148 19.349 30.7041 20.4688 29.2188C21.2724 28.1543 22.3097 27.2886 23.5008 26.6883C24.3535 26.2593 25.2732 25.9789 26.2203 25.8594L25.7969 27.9688C25.7764 28.0713 25.7767 28.177 25.7978 28.2795C25.819 28.3819 25.8604 28.4791 25.9198 28.5652C25.9792 28.6513 26.0553 28.7247 26.1435 28.7808C26.2318 28.837 26.3304 28.8749 26.4336 28.8922L31.1211 29.6734C31.1636 29.6816 31.2067 29.6863 31.25 29.6875H25C24.5856 29.6875 24.1882 29.8521 23.8951 30.1451C23.6021 30.4382 23.4375 30.8356 23.4375 31.25V37.5H18.75V34.375ZM17.1875 39.0625V40.625H18.75V39.0625H20.3125V40.625H21.875V39.0625H23.4375V40.625H25V39.0625H26.5625V42.1875H15.625V39.0625H17.1875ZM3.125 42.1875V39.0625H4.6875V40.625H6.25V39.0625H7.8125V40.625H9.375V39.0625H10.9375V40.625H12.5V39.0625H14.0625V42.1875H3.125ZM3.125 34.375H4.6875V35.9375H6.25V34.375H7.8125V35.9375H9.375V34.375H10.9375V35.9375H12.5V34.375H14.0625V37.5H3.125V34.375ZM3.125 46.875V43.75H4.6875V45.3125H6.25V43.75H7.8125V45.3125H9.375V43.75H10.9375V45.3125H12.5V43.75H14.0625V46.875H3.125ZM25.7812 46.875H15.625V43.75H17.1875V45.3125H18.75V43.75H20.3125V45.3125H21.875V43.75H23.4375V45.3125H25V43.75H26.5625V46.875H25.7812ZM28.125 46.0938H32.8125V46.875H28.125V46.0938ZM46.875 46.875H39.0625V46.0938H46.875V46.875ZM44.6422 42.1875C44.7826 41.6506 45.0634 41.1607 45.4558 40.7683C45.8482 40.3759 46.3381 40.0951 46.875 39.9547V42.1875H44.6422Z" fill="#02A8A8"/>
<path d="M35.9375 32.8125C35.1649 32.8125 34.4097 33.0416 33.7673 33.4708C33.1249 33.9 32.6242 34.5101 32.3286 35.2239C32.0329 35.9377 31.9556 36.7231 32.1063 37.4808C32.257 38.2386 32.6291 38.9346 33.1754 39.4809C33.7217 40.0272 34.4177 40.3992 35.1754 40.55C35.9332 40.7007 36.7186 40.6233 37.4323 40.3277C38.1461 40.032 38.7562 39.5313 39.1854 38.889C39.6146 38.2466 39.8437 37.4913 39.8437 36.7188C39.8425 35.6831 39.4305 34.6903 38.6983 33.958C37.966 33.2257 36.9731 32.8137 35.9375 32.8125ZM35.9375 39.0625C35.4739 39.0625 35.0208 38.9251 34.6354 38.6675C34.2499 38.41 33.9495 38.0439 33.7722 37.6157C33.5948 37.1874 33.5483 36.7162 33.6388 36.2615C33.7292 35.8069 33.9524 35.3893 34.2802 35.0615C34.608 34.7337 35.0256 34.5105 35.4803 34.42C35.9349 34.3296 36.4061 34.376 36.8344 34.5534C37.2627 34.7308 37.6287 35.0312 37.8862 35.4166C38.1438 35.8021 38.2812 36.2552 38.2812 36.7188C38.2812 37.3404 38.0343 37.9365 37.5948 38.376C37.1552 38.8156 36.5591 39.0625 35.9375 39.0625Z" fill="#02A8A8"/>
</svg>
