<svg width="59" height="60" viewBox="0 0 59 60" fill="none" xmlns="http://www.w3.org/2000/svg">
<ellipse cx="29.5" cy="30" rx="29.5" ry="30" fill="#FDE2BF"/>
<path d="M34.5 37.5L29.5 37.601L31.9873 39L34.5 37.5Z" fill="#F8A02B"/>
<path d="M32.9826 39L29.5 37.601L36.5 37.5L32.9826 39ZM31.3107 37.9203L32.9752 38.5894L34.6562 37.8723L31.3107 37.9203Z" fill="#F8A02B"/>
<path d="M46.1399 30.9512C45.6897 30.4469 44.973 30.3542 44.4252 30.7295L32.16 39.4426C31.985 39.5671 31.759 39.5706 31.5808 39.4514L27.4401 36.6793L24.1092 36.757C23.8149 36.7565 23.5729 36.5061 23.56 36.1887C23.5535 35.8686 23.7879 35.6033 24.0844 35.5952L27.5674 35.5142H27.5826L34.5812 35.3461C35.2111 35.3287 35.7287 34.8039 35.7841 34.1262C35.787 34.0898 35.7881 34.0533 35.7872 34.0167C35.7878 33.34 35.3172 32.7709 34.6943 32.695L21.6317 31.0739C20.2983 30.9123 18.9484 31.0864 17.6877 31.5826L11 34.2407V42.1653L11.7658 41.4459C11.7942 41.4191 11.8251 41.3956 11.8581 41.3758C12.9553 40.7204 14.1886 40.3764 15.4426 40.376C16.2157 40.3755 16.984 40.5076 17.7186 40.7675L29.3109 44.8788C29.9942 45.1218 30.744 44.995 31.3258 44.5382L45.9482 33.104C46.2598 32.8633 46.4589 32.4882 46.4939 32.0764C46.5306 31.6639 46.4017 31.2543 46.1399 30.9512Z" fill="#F8A02B"/>
<path d="M30.2605 45C29.9959 44.9997 29.733 44.9555 29.4817 44.8692L17.8917 40.9091C16.0113 40.2821 13.966 40.4863 12.2346 41.4741C12.2165 41.4842 12.1994 41.4964 12.184 41.5105L11 42.5829V34.1842L17.8522 31.5592C19.1497 31.0665 20.5395 30.8939 21.912 31.0549L34.9754 32.6158C35.7266 32.7037 36.2944 33.365 36.2937 34.1514C36.2946 34.1969 36.2929 34.2423 36.2887 34.2876C36.2199 35.0719 35.5969 35.6782 34.84 35.6971L24.3443 35.9371C24.1872 35.9411 24.0628 36.0765 24.0659 36.2399C24.0844 36.3962 24.2065 36.517 24.3575 36.5285L27.7617 36.4519L31.9656 39.164C32.0593 39.2241 32.1779 39.2222 32.2699 39.1592L44.5331 30.7648C45.1838 30.3322 46.0377 30.4385 46.5719 31.0186C46.883 31.3657 47.0361 31.8349 46.9928 32.3073C46.9512 32.7797 46.7141 33.2098 46.3433 33.4858L31.7238 44.5046C31.2989 44.8272 30.7864 45.0007 30.2605 45ZM15.6957 40.016C16.4955 40.0153 17.2904 40.147 18.0504 40.4063L29.6404 44.3675C30.2457 44.5757 30.9104 44.4674 31.4257 44.0768L46.0462 33.0596C46.2988 32.8719 46.4601 32.5789 46.4879 32.2572C46.5175 31.9353 46.4132 31.6156 46.2014 31.3789C45.8365 30.983 45.2535 30.9108 44.8095 31.2064L32.5493 39.6003C32.2917 39.7766 31.9591 39.7814 31.6969 39.6125L27.6203 36.9827L24.3657 37.0561H24.353C23.9238 37.051 23.5739 36.6968 23.5574 36.2506C23.5489 35.7963 23.8951 35.4204 24.3317 35.4097L34.8274 35.1697C35.3283 35.1561 35.7395 34.7536 35.7832 34.2344C35.7844 34.2121 35.7844 34.1897 35.7832 34.1674C35.7894 33.6444 35.4145 33.201 34.9151 33.1408L21.8512 31.5793C20.5572 31.4282 19.2471 31.5907 18.0236 32.0541L11.5071 34.5519V41.4244L11.8528 41.1116C11.895 41.0738 11.9406 41.0406 11.9893 41.0124C13.124 40.3599 14.3991 40.0171 15.6957 40.016Z" fill="#F8A02B"/>
<path d="M37.7613 34.3839C37.7623 34.4438 37.7589 34.5037 37.751 34.5633C37.7324 34.7118 37.6905 34.8583 37.6259 35L44 31.9841C43.4282 31.526 42.5179 31.3755 41.7253 31.6081L37 33.0168C37.4889 33.3851 37.7616 33.8747 37.7613 34.3839Z" fill="#F8A02B"/>
<path d="M36.5209 35.5L36.7567 34.8005C36.8072 34.6515 36.84 34.4975 36.8546 34.3414C36.8608 34.2788 36.8634 34.2158 36.8626 34.153C36.8616 33.6191 36.6479 33.106 36.266 32.7205L36 32.4493L40.4996 30.6478C41.2986 30.3307 42.2174 30.5346 42.7936 31.1568L43 31.3792L36.5209 35.5ZM36.8935 32.6469C37.2199 33.0856 37.3955 33.6124 37.3952 34.153C37.3952 34.2101 37.3952 34.2713 37.3905 34.3306L42.1631 31.2937C41.7405 30.9945 41.1875 30.9291 40.7029 31.1213L36.8935 32.6469Z" fill="#F8A02B"/>
<path d="M36.862 15.5046C35.9235 14.4964 34.6224 13.9412 33.1985 13.9412C31.6092 13.9412 30.2315 14.6594 29.2144 16.0183C29.1382 16.1202 29.0668 16.2221 29 16.3229C28.9332 16.222 28.8618 16.1202 28.7855 16.0183C27.7684 14.6594 26.3908 13.9412 24.8015 13.9412C23.3776 13.9412 22.0765 14.4964 21.138 15.5046C20.2473 16.4613 19.7567 17.7404 19.7567 19.1062C19.7567 20.5904 20.3593 21.9599 21.6529 23.4163C22.7817 24.687 24.4007 25.9931 26.2753 27.5055C26.9681 28.0644 27.6845 28.6423 28.4457 29.273C28.6048 29.4047 28.8023 29.4706 29 29.4706C29.1975 29.4706 29.3951 29.4047 29.5542 29.273C30.3153 28.6424 31.0316 28.0646 31.7244 27.5058C32.9284 26.5344 33.9681 25.6956 34.8704 24.882C36.6222 23.3022 38.2432 21.509 38.2432 19.1062C38.2432 17.7405 37.7527 16.4614 36.862 15.5046Z" fill="#F8A02B"/>
</svg>
