<svg width="62" height="62" viewBox="0 0 62 62" fill="none" xmlns="http://www.w3.org/2000/svg">
<circle cx="31" cy="31" r="31" fill="#FDE2BF"/>
<path d="M45.6888 20.4885C43.9539 18.6995 41.549 17.7143 38.917 17.7143C35.9792 17.7143 33.4327 18.9888 31.5526 21.4C31.4116 21.5808 31.2797 21.7616 31.1562 21.9405C31.0327 21.7615 30.9008 21.5808 30.7598 21.4C28.8798 18.9888 26.3332 17.7143 23.3954 17.7143C20.7635 17.7143 18.3585 18.6995 16.6237 20.4884C14.9774 22.1861 14.0706 24.4557 14.0706 26.8792C14.0706 29.5127 15.1844 31.9429 17.5755 34.5271C19.662 36.7818 22.6546 39.0994 26.1198 41.783C27.4004 42.7747 28.7246 43.8002 30.1317 44.9192C30.4257 45.1529 30.7909 45.2699 31.1562 45.2699C31.5213 45.2699 31.8866 45.1529 32.1806 44.9192C33.5875 43.8004 34.9115 42.775 36.1921 41.7835C38.4176 40.06 40.3395 38.5716 42.0074 37.1278C45.2455 34.3246 48.2419 31.1428 48.2419 26.8793C48.2419 24.4558 47.3352 22.1862 45.6888 20.4885Z" fill="#F8A02B"/>
</svg>
