<svg width="25" height="25" viewBox="0 0 25 25" fill="none" xmlns="http://www.w3.org/2000/svg">
<g clip-path="url(#clip0)">
<path d="M21.3371 3.66265C16.4534 -1.22116 8.5479 -1.22194 3.66341 3.66265C-1.22045 8.54646 -1.22118 16.4518 3.66341 21.3364C8.54712 26.2202 16.4526 26.2209 21.3371 21.3364C26.2209 16.4525 26.2216 8.54719 21.3371 3.66265ZM20.8147 19.5549C20.2308 19.0328 19.6063 18.5707 18.9479 18.1725C19.383 16.6694 19.6408 15.0153 19.7018 13.2959H23.376C23.2099 15.6135 22.3194 17.7875 20.8147 19.5549ZM1.62445 13.2959H5.29865C5.35958 15.0153 5.61738 16.6694 6.05252 18.1725C5.39417 18.5707 4.76959 19.0328 4.18569 19.5549C2.68106 17.7875 1.79062 15.6135 1.62445 13.2959ZM4.18574 5.44411C4.76963 5.96624 5.39422 6.42831 6.05257 6.82652C5.61743 8.32964 5.35963 9.98371 5.29869 11.7031H1.62445C1.79062 9.38557 2.68106 7.21151 4.18574 5.44411ZM11.7039 6.99113C10.405 6.89824 9.15268 6.57834 7.99166 6.05059C8.66689 4.31183 9.91168 2.22637 11.7039 1.70956V6.99113ZM11.7039 8.5869V11.7032H6.89212C6.94725 10.2487 7.15333 8.85202 7.49607 7.57411C8.81545 8.15088 10.2344 8.49533 11.7039 8.5869ZM11.7039 13.2959V16.4122C10.2344 16.5037 8.81545 16.8482 7.49607 17.4249C7.15333 16.147 6.94725 14.7504 6.89212 13.2959H11.7039ZM11.7039 18.0079V23.2894C9.91177 22.7726 8.66699 20.6874 7.99166 18.9485C9.15268 18.4207 10.405 18.1008 11.7039 18.0079ZM13.2966 18.0079C14.5955 18.1008 15.8478 18.4207 17.0088 18.9485C16.3335 20.6873 15.0888 22.7726 13.2966 23.2894V18.0079ZM13.2966 16.4122V13.2959H18.1084C18.0532 14.7504 17.8471 16.147 17.5044 17.4249C16.185 16.8482 14.7661 16.5037 13.2966 16.4122ZM13.2966 11.7032V8.5869C14.7661 8.49533 16.185 8.15088 17.5044 7.57411C17.8471 8.85202 18.0532 10.2487 18.1084 11.7032H13.2966ZM13.2966 6.99113V1.70961C15.0888 2.22642 16.3336 4.31188 17.0088 6.05064C15.8478 6.57834 14.5955 6.89824 13.2966 6.99113ZM16.8738 2.50471C17.8932 2.95112 18.8443 3.55644 19.6969 4.30748C19.291 4.6653 18.8628 4.98974 18.4157 5.27988C18.0186 4.2967 17.5113 3.34123 16.8738 2.50471ZM6.58475 5.27988C6.13761 4.98974 5.70944 4.6653 5.30357 4.30748C6.15615 3.55644 7.10723 2.95112 8.12666 2.50471C7.48909 3.34133 6.98184 4.2968 6.58475 5.27988ZM6.5848 19.7192C6.98184 20.7023 7.48919 21.6578 8.12671 22.4943C7.10728 22.0479 6.1562 21.4426 5.30362 20.6916C5.70944 20.3338 6.13766 20.0093 6.5848 19.7192ZM18.4157 19.7192C18.8628 20.0093 19.291 20.3338 19.6969 20.6915C18.8443 21.4426 17.8932 22.0479 16.8738 22.4943C17.5113 21.6579 18.0186 20.7024 18.4157 19.7192ZM19.7018 11.7032C19.6409 9.98376 19.3831 8.32964 18.948 6.82657C19.6063 6.42836 20.2308 5.96629 20.8148 5.44415C22.3194 7.21151 23.2099 9.38557 23.376 11.7032H19.7018Z" fill="#F8A02B"/>
</g>
<defs>
<clipPath id="clip0">
<rect width="25" height="25" fill="white"/>
</clipPath>
</defs>
</svg>
