<svg width="63" height="62" viewBox="0 0 63 62" fill="none" xmlns="http://www.w3.org/2000/svg">
<circle cx="31.1404" cy="31" r="31" fill="#FDE2BF"/>
<g clip-path="url(#clip0)">
<path d="M45.8954 17.0589C42.7677 13.9962 37.6969 13.9962 34.5691 17.0588L27.8754 23.6133C24.6402 26.7814 24.9397 31.8292 27.8754 34.7039C28.367 35.1853 28.911 35.5778 29.4853 35.9002L30.707 34.7039C31.5083 33.9192 31.2263 33.0018 31.2119 32.3399C31.036 32.2178 30.8649 32.0859 30.707 31.9312C29.2005 30.4562 29.1327 27.9274 30.707 26.3859C30.9408 26.157 37.2587 19.9705 37.4006 19.8316C38.9623 18.3024 41.5021 18.3024 43.0638 19.8316C44.6254 21.3608 44.6254 23.8478 43.0638 25.3769L38.6393 29.7093C38.7673 30.4025 39.5351 32.0446 39.1401 34.7533C39.1594 34.7347 39.1825 34.7228 39.2017 34.704L45.8954 28.1496C49.023 25.0869 49.023 20.1216 45.8954 17.0589Z" fill="#F8A02B"/>
<path d="M34.9542 27.7723C34.4626 27.2909 33.9186 26.8984 33.3444 26.576L32.1227 27.7723C31.3213 28.5569 31.6033 29.4743 31.6178 30.1362C31.7937 30.2583 31.9648 30.3903 32.1227 30.5449C33.6293 32.0201 33.697 34.5487 32.1227 36.0902C31.8884 36.3197 25.0472 43.0185 24.9103 43.1526C23.3486 44.6817 20.8088 44.6817 19.2471 43.1526C17.6855 41.6234 17.6855 39.1364 19.2471 37.6072L24.1904 32.7668C24.0625 32.0736 23.2946 30.4316 23.6896 27.7229C23.6703 27.7414 23.6471 27.7535 23.6279 27.7723L16.4155 34.8347C13.2879 37.8973 13.2879 42.8627 16.4155 45.9253C19.5433 48.9879 24.614 48.9879 27.7418 45.9253L34.9542 38.863C38.1295 35.7538 37.9559 30.7115 34.9542 27.7723Z" fill="#F8A02B"/>
</g>
<defs>
<clipPath id="clip0">
<rect width="34.1713" height="33.4603" fill="white" transform="translate(14.0698 14.7619)"/>
</clipPath>
</defs>
</svg>
