<svg width="45" height="45" viewBox="0 0 45 45" fill="none" xmlns="http://www.w3.org/2000/svg">
<ellipse cx="22.125" cy="22.5" rx="22.125" ry="22.5" fill="#FDE2BF"/>
<path d="M32.0004 28.92V31.92C32.0016 32.1985 31.9445 32.4742 31.8329 32.7293C31.7214 32.9845 31.5577 33.2136 31.3525 33.4019C31.1473 33.5901 30.905 33.7335 30.6412 33.8227C30.3773 33.9119 30.0978 33.9451 29.8204 33.92C26.7433 33.5856 23.7874 32.5341 21.1904 30.85C18.7742 29.3147 16.7258 27.2662 15.1904 24.85C13.5004 22.2412 12.4487 19.271 12.1204 16.18C12.0954 15.9035 12.1283 15.6248 12.2169 15.3616C12.3055 15.0985 12.448 14.8567 12.6352 14.6516C12.8224 14.4466 13.0502 14.2827 13.3042 14.1705C13.5582 14.0583 13.8328 14.0003 14.1104 14H17.1104C17.5957 13.9952 18.0662 14.1671 18.4342 14.4835C18.8022 14.8 19.0425 15.2394 19.1104 15.72C19.237 16.6801 19.4719 17.6227 19.8104 18.53C19.945 18.8879 19.9741 19.2769 19.8943 19.6509C19.8146 20.0248 19.6293 20.3681 19.3604 20.64L18.0904 21.91C19.514 24.4135 21.5869 26.4864 24.0904 27.91L25.3604 26.64C25.6323 26.3711 25.9756 26.1858 26.3495 26.1061C26.7235 26.0263 27.1125 26.0555 27.4704 26.19C28.3777 26.5285 29.3204 26.7634 30.2804 26.89C30.7662 26.9585 31.2098 27.2032 31.527 27.5775C31.8441 27.9518 32.0126 28.4296 32.0004 28.92Z" stroke="#F8A02B" stroke-width="2" stroke-linecap="round" stroke-linejoin="round"/>
</svg>
