<svg width="50" height="50" viewBox="0 0 50 50" fill="none" xmlns="http://www.w3.org/2000/svg">
<g clip-path="url(#clip0)">
<path d="M48.4518 33.3415L45.4269 32.9093C45.1937 32.0797 44.8621 31.2809 44.4385 30.531L46.2716 28.0835C46.5202 27.7519 46.4876 27.2884 46.1951 26.995L43.8375 24.6375C43.5441 24.3449 43.0807 24.3123 42.749 24.561L40.3015 26.394C39.5516 25.9705 38.7529 25.6388 37.9232 25.4057L37.4907 22.3808C37.4317 21.971 37.0805 21.6671 36.6667 21.6667H35.8333V4.16667C35.8305 1.86646 33.9669 0.00284831 31.6667 0H5.00001C2.6998 0.00284831 0.836192 1.86646 0.833344 4.16667V40.8333C0.836192 43.1335 2.6998 44.9972 5.00001 45H24.1325L26.1617 47.0292C26.4551 47.3218 26.9186 47.3543 27.2502 47.1057L29.6977 45.2726C30.4476 45.6962 31.2463 46.0278 32.076 46.261L32.5082 49.2859C32.5676 49.696 32.9191 50 33.3333 50H36.6667C37.0813 50 37.4329 49.6952 37.4919 49.2851L37.924 46.2602C38.7537 46.027 39.5524 45.6954 40.3023 45.2718L42.7499 47.1049C43.0815 47.3535 43.5449 47.321 43.8383 47.0284L46.1959 44.6708C46.4885 44.3774 46.521 43.914 46.2724 43.5824L44.4393 41.1348C44.8629 40.3849 45.1945 39.5862 45.4277 38.7565L48.4526 38.324C48.8623 38.265 49.1663 37.9138 49.1667 37.5V34.1667C49.1667 33.752 48.8619 33.4005 48.4518 33.3415ZM29.1667 1.66667V7.15495L28.0892 6.07747C27.7637 5.75236 27.2363 5.75236 26.9108 6.07747L25.8333 7.15495V1.66667H29.1667ZM2.50001 40.8333V4.16667C2.50001 2.78605 3.6194 1.66667 5.00001 1.66667H24.1667V9.16667C24.1667 9.50358 24.3697 9.80754 24.681 9.93652C24.9923 10.0655 25.3508 9.9939 25.5892 9.75586L27.5 7.84505L29.4108 9.75586C29.5671 9.91211 29.7791 10 30 10C30.1095 10.0004 30.2181 9.97884 30.319 9.93652C30.6303 9.80754 30.8333 9.50358 30.8333 9.16667V1.66667H31.6667C33.0473 1.66667 34.1667 2.78605 34.1667 4.16667V21.6667H33.3333C32.9187 21.6667 32.5672 21.9714 32.5082 22.3816L32.076 25.4065C31.2463 25.6396 30.4476 25.9713 29.6977 26.3949L27.2502 24.5618C26.9186 24.3132 26.4551 24.3457 26.1617 24.6383L23.8041 26.9958C23.5116 27.2892 23.479 27.7527 23.7276 28.0843L25.5607 30.5318C25.1371 31.2817 24.8055 32.0805 24.5724 32.9102L21.5475 33.3427C21.1377 33.4017 20.8338 33.7528 20.8333 34.1667V37.5C20.8333 37.9146 21.1381 38.2662 21.5483 38.3252L24.5732 38.7573C24.8063 39.587 25.138 40.3857 25.5615 41.1357L23.9168 43.3333H5.00001C3.6194 43.3333 2.50001 42.2139 2.50001 40.8333ZM47.5 36.7773L44.6367 37.1859C44.2932 37.2347 44.0161 37.4915 43.9408 37.83C43.7114 38.8635 43.3024 39.849 42.7324 40.7418C42.5472 41.0339 42.5619 41.4103 42.7694 41.6874L44.506 44.0051L43.1726 45.3381L40.8549 43.6015C40.5778 43.3944 40.2014 43.3797 39.9093 43.5649C39.0165 44.1349 38.031 44.5439 36.9975 44.7734C36.6589 44.8486 36.4022 45.1257 36.3534 45.4692L35.944 48.3333H34.056L33.6475 45.47C33.5986 45.1265 33.3419 44.8494 33.0033 44.7742C31.9698 44.5447 30.9843 44.1357 30.0916 43.5657C29.7994 43.3805 29.423 43.3952 29.1459 43.6027L26.8282 45.3394L25.4952 44.0059L27.2319 41.6882C27.439 41.4111 27.4536 41.0347 27.2685 40.7426C26.6984 39.8499 26.2895 38.8643 26.06 37.8308C25.9847 37.4923 25.7076 37.2355 25.3642 37.1867L22.5 36.7773V34.8893L25.3634 34.4808C25.7068 34.432 25.9839 34.1752 26.0592 33.8367C26.2887 32.8031 26.6976 31.8176 27.2677 30.9249C27.4528 30.6327 27.4382 30.2563 27.2306 29.9792L25.494 27.6615L26.8274 26.3285L29.1451 28.0652C29.4222 28.2723 29.7986 28.2869 30.0907 28.1018C30.9835 27.5317 31.969 27.1228 33.0025 26.8933C33.3411 26.818 33.5978 26.5409 33.6467 26.1975L34.056 23.3333H35.944L36.3526 26.1967C36.4014 26.5401 36.6581 26.8172 36.9967 26.8925C38.0302 27.122 39.0157 27.5309 39.9085 28.101C40.2006 28.2861 40.577 28.2715 40.8541 28.064L43.1718 26.3273L44.5048 27.6607L42.7682 29.9784C42.561 30.2555 42.5464 30.6319 42.7315 30.9241C43.3016 31.8168 43.7105 32.8023 43.94 33.8359C44.0153 34.1744 44.2924 34.4312 44.6358 34.48L47.4992 34.8885L47.5 36.7773Z" fill="#02A8A8"/>
<path d="M35 29.1667C31.318 29.1667 28.3333 32.1514 28.3333 35.8334C28.3333 39.5155 31.318 42.5001 35 42.5001C38.6821 42.5001 41.6667 39.5155 41.6667 35.8334C41.6626 32.1534 38.68 29.1708 35 29.1667ZM35 40.8334C32.2388 40.8334 30 38.5946 30 35.8334C30 33.0722 32.2388 30.8334 35 30.8334C37.7612 30.8334 40 33.0722 40 35.8334C39.9972 38.5938 37.7604 40.8306 35 40.8334Z" fill="#02A8A8"/>
<path d="M5.83334 5H9.16668V6.66667H5.83334V5Z" fill="#02A8A8"/>
<path d="M10.8333 5H19.1667V6.66667H10.8333V5Z" fill="#02A8A8"/>
<path d="M5.83334 8.33325H19.1667V9.99992H5.83334V8.33325Z" fill="#02A8A8"/>
<path d="M5.83334 15H29.1667V16.6667H5.83334V15Z" fill="#02A8A8"/>
<path d="M5.83334 20H24.1667V21.6667H5.83334V20Z" fill="#02A8A8"/>
<path d="M25.8333 20H29.1667V21.6667H25.8333V20Z" fill="#02A8A8"/>
<path d="M5.83334 25H22.5V26.6667H5.83334V25Z" fill="#02A8A8"/>
<path d="M5.83334 31.6667H12.5V33.3334H5.83334V31.6667Z" fill="#02A8A8"/>
<path d="M5.83334 35H12.5V36.6667H5.83334V35Z" fill="#02A8A8"/>
</g>
<defs>
<clipPath id="clip0">
<rect width="50" height="50" fill="white"/>
</clipPath>
</defs>
</svg>
