<svg width="50" height="50" viewBox="0 0 50 50" fill="none" xmlns="http://www.w3.org/2000/svg">
<path d="M43.387 27.2957C43.4807 26.5329 43.5291 25.7659 43.5291 25C43.5291 24.2342 43.4807 23.4672 43.386 22.7055L49.999 18.8884L42.793 6.40665L36.1656 10.232C34.9385 9.29932 33.6137 8.53137 32.2054 7.93637V0.293945H17.7935V7.93637C16.3853 8.5324 15.0604 9.29932 13.8334 10.232L7.20595 6.40665L0 18.8873L6.61197 22.7044C6.51726 23.4672 6.46991 24.2342 6.46991 25C6.46991 25.7659 6.51726 26.5329 6.613 27.2946L0.00102942 31.1117L7.20698 43.5924L13.8344 39.7671C15.0615 40.6997 16.3863 41.4677 17.7946 42.0627V49.7061H32.2065V42.0637C33.6147 41.4677 34.9385 40.7008 36.1666 39.7681L42.7941 43.5934L50 31.1127L43.387 27.2957ZM41.2849 37.9697L35.6983 34.7445L34.5875 35.7369C33.0887 37.0752 31.3778 38.0675 29.5032 38.6841L28.0877 39.1494V45.5885H21.9112V39.1494L20.4958 38.6831C18.6202 38.0655 16.9093 37.0741 15.4115 35.7359L14.3007 34.7435L8.71302 37.9687L5.62476 32.6198L11.195 29.4039L10.8913 27.9452C10.6895 26.9786 10.5876 25.9873 10.5876 25C10.5876 24.0128 10.6895 23.0215 10.8913 22.0538L11.195 20.5952L5.62476 17.3792L8.71302 12.0304L14.3007 15.2555L15.4115 14.2632C16.9093 12.9249 18.6202 11.9336 20.4958 11.316L21.9112 10.8507V4.41163H28.0877V10.8507L29.5032 11.317C31.3778 11.9336 33.0887 12.926 34.5875 14.2642L35.6983 15.2566L41.2849 12.0314L44.3732 17.3803L38.804 20.5962L39.1077 22.0549C39.3084 23.0215 39.4114 24.0128 39.4114 25C39.4114 25.9873 39.3084 26.9786 39.1077 27.9462L38.804 29.4049L44.3732 32.6208L41.2849 37.9697Z" fill="#02A8A8"/>
<path d="M24.9995 15.7354C19.8915 15.7354 15.7347 19.8922 15.7347 25.0001C15.7347 30.1081 19.8915 34.2649 24.9995 34.2649C30.1085 34.2649 34.2643 30.1081 34.2643 25.0001C34.2643 19.8922 30.1085 15.7354 24.9995 15.7354ZM24.9995 30.1472C22.1614 30.1472 19.8524 27.8383 19.8524 25.0001C19.8524 22.162 22.1614 19.853 24.9995 19.853C27.8376 19.853 30.1466 22.162 30.1466 25.0001C30.1466 27.8383 27.8376 30.1472 24.9995 30.1472Z" fill="#02A8A8"/>
</svg>
