<svg width="50" height="50" viewBox="0 0 50 50" fill="none" xmlns="http://www.w3.org/2000/svg">
<path d="M26.9532 19.5312C27.6004 19.5312 28.125 19.0066 28.125 18.3594C28.125 17.7122 27.6004 17.1875 26.9532 17.1875C26.3059 17.1875 25.7813 17.7122 25.7813 18.3594C25.7813 19.0066 26.3059 19.5312 26.9532 19.5312Z" fill="#018383"/>
<path d="M16.7969 19.5312C17.4441 19.5312 17.9688 19.0066 17.9688 18.3594C17.9688 17.7122 17.4441 17.1875 16.7969 17.1875C16.1497 17.1875 15.625 17.7122 15.625 18.3594C15.625 19.0066 16.1497 19.5312 16.7969 19.5312Z" fill="#018383"/>
<path d="M20.3125 23.828H21.875C22.1587 23.8282 22.4328 23.7256 22.6465 23.5391C22.8602 23.3526 22.999 23.0949 23.0371 22.8138C23.0753 22.5327 23.0102 22.2474 22.854 22.0106C22.6978 21.7739 22.461 21.6019 22.1875 21.5264L22.9232 20.0552C23.0593 19.7775 23.0801 19.4573 22.9812 19.1644C22.8823 18.8714 22.6716 18.6294 22.395 18.4911C22.1184 18.3529 21.7984 18.3295 21.5047 18.4261C21.2109 18.5228 20.9673 18.7316 20.8269 19.0071L19.2644 22.1321C19.1751 22.3108 19.1329 22.5093 19.1419 22.7088C19.1509 22.9084 19.2107 23.1023 19.3157 23.2722C19.4207 23.4421 19.5674 23.5824 19.7419 23.6797C19.9163 23.7769 20.1128 23.828 20.3125 23.828Z" fill="#018383"/>
<path d="M20.3125 7.42188H23.4375C23.7483 7.42188 24.0464 7.29841 24.2661 7.07864C24.4859 6.85887 24.6094 6.5608 24.6094 6.25C24.6094 5.9392 24.4859 5.64113 24.2661 5.42136C24.0464 5.20159 23.7483 5.07812 23.4375 5.07812H20.3125C20.0017 5.07812 19.7036 5.20159 19.4839 5.42136C19.2641 5.64113 19.1406 5.9392 19.1406 6.25C19.1406 6.5608 19.2641 6.85887 19.4839 7.07864C19.7036 7.29841 20.0017 7.42188 20.3125 7.42188Z" fill="#018383"/>
<path d="M48.5815 35.2812L47.336 35.127L47.067 34.4776L47.8385 33.488C48.0143 33.2626 48.1016 32.9806 48.084 32.6953C48.0665 32.41 47.9452 32.1409 47.7431 31.9388L44.9289 29.1246C44.7268 28.9225 44.4577 28.8012 44.1724 28.7836C43.8871 28.7661 43.6051 28.8534 43.3797 29.0292L42.3901 29.8007L41.7407 29.5317L41.5866 28.2862C41.5515 28.0025 41.4139 27.7414 41.1997 27.5521C40.9855 27.3628 40.7094 27.2583 40.4236 27.2583H36.4442C36.1583 27.2583 35.8823 27.3628 35.6681 27.5521C35.4539 27.7414 35.3163 28.0025 35.2812 28.2862L35.127 29.532L34.4777 29.801L33.488 29.0295C33.2626 28.8537 32.9807 28.7664 32.6953 28.7839C32.41 28.8015 32.1409 28.9228 31.9388 29.1249L29.1246 31.9391C28.9225 32.1412 28.8012 32.4103 28.7837 32.6956C28.7661 32.9809 28.8534 33.2629 29.0292 33.4883L29.8007 34.4779L29.5318 35.1272L28.2862 35.2813C28.0025 35.3165 27.7415 35.4541 27.5521 35.6683C27.3628 35.8825 27.2583 36.1585 27.2583 36.4443V37.4822L21.875 42.1929L15.0656 36.2351L17.5242 35.4975C17.7656 35.425 17.9773 35.2767 18.1277 35.0745C18.2781 34.8723 18.3594 34.627 18.3594 34.375V31.6004C19.5801 32.1242 20.8106 32.4219 21.875 32.4219C23.8784 32.4219 26.4687 31.368 28.4738 29.737C30.2603 28.284 31.4824 26.4753 32.0533 24.4901C34.2395 23.8325 35.5469 20.5992 35.5469 18.75C35.5469 17.9266 35.3065 17.2706 34.8323 16.8C34.3261 16.2978 33.6881 16.1123 32.9839 16.0463C33.6312 15.2747 33.9855 14.2995 33.9844 13.2924V7.8125C33.9821 5.84479 33.1995 3.95831 31.8081 2.56693C30.4167 1.17554 28.5302 0.392874 26.5625 0.390625H17.1875C15.2198 0.392874 13.3333 1.17554 11.9419 2.56693C10.5506 3.95831 9.76789 5.84479 9.76564 7.8125V13.2924C9.76452 14.2995 10.1188 15.2747 10.7661 16.0463C10.0621 16.1124 9.42384 16.2979 8.91769 16.8C8.44357 17.2706 8.20314 17.9266 8.20314 18.75C8.20314 20.5992 9.51056 23.8325 11.6967 24.4901C12.2676 26.4757 13.4898 28.284 15.2762 29.737C15.515 29.9312 15.7622 30.117 16.0156 30.2937V33.5026L3.45236 37.2721C2.5651 37.5339 1.78685 38.0767 1.23469 38.819C0.682535 39.5612 0.38633 40.4626 0.390641 41.3877V48.4375C0.390641 48.7483 0.514106 49.0464 0.733875 49.2661C0.953644 49.4859 1.25172 49.6094 1.56252 49.6094C1.87332 49.6094 2.17139 49.4859 2.39116 49.2661C2.61093 49.0464 2.73439 48.7483 2.73439 48.4375V41.3877C2.73634 40.9682 2.87243 40.5604 3.12279 40.2238C3.37314 39.8872 3.72461 39.6395 4.1258 39.517L12.4152 37.0302L21.1035 44.6319C21.3171 44.8187 21.5913 44.9217 21.875 44.9217C22.1588 44.9217 22.4329 44.8187 22.6465 44.6319L27.271 40.5859C27.3065 40.8414 27.4252 41.0779 27.6089 41.2589C27.7925 41.44 28.0307 41.5553 28.2866 41.5871L29.5321 41.7412L29.8011 42.3905L29.0296 43.3802C28.8538 43.6056 28.7665 43.8875 28.7841 44.1728C28.8016 44.4582 28.9229 44.7272 29.125 44.9294L31.9392 47.7436C32.1413 47.9457 32.4104 48.0669 32.6957 48.0845C32.9811 48.1021 33.263 48.0148 33.4884 47.839L34.478 47.0675L35.1274 47.3364L35.2815 48.5819C35.3167 48.8655 35.4543 49.1264 35.6684 49.3156C35.8825 49.5049 36.1584 49.6093 36.4442 49.6094H40.4238C40.7096 49.6094 40.9857 49.5049 41.1999 49.3156C41.4141 49.1263 41.5517 48.8652 41.5868 48.5814L41.7409 47.3359L42.3903 47.067L43.3799 47.8385C43.6053 48.0143 43.8872 48.1016 44.1726 48.084C44.4579 48.0665 44.727 47.9452 44.9291 47.7431L47.7433 44.9289C47.9454 44.7267 48.0667 44.4577 48.0842 44.1724C48.1018 43.887 48.0145 43.6051 47.8387 43.3797L47.0672 42.39L47.3362 41.7407L48.5817 41.5866C48.8653 41.5515 49.1263 41.4139 49.3156 41.1997C49.5049 40.9855 49.6094 40.7096 49.6094 40.4237V36.4441C49.6094 36.1583 49.5049 35.8823 49.3156 35.6681C49.1263 35.4539 48.8652 35.3163 48.5815 35.2812ZM12.8158 14.7942C12.6076 14.6224 12.4375 14.4091 12.3163 14.1678C12.1951 13.9266 12.1255 13.6628 12.1119 13.3932C18.5095 11.6923 25.2405 11.6923 31.6381 13.3932C31.6233 13.6722 31.5489 13.9449 31.4199 14.1927C31.2908 14.4406 31.1101 14.6579 30.89 14.83C30.6699 15.0022 30.4154 15.1251 30.1437 15.1906C29.8721 15.256 29.5895 15.2625 29.3152 15.2096C26.6729 14.7064 24.2738 14.4549 21.875 14.4549C19.4762 14.4549 17.0772 14.7064 14.4349 15.2096C14.1511 15.2642 13.8587 15.2552 13.5788 15.1834C13.2989 15.1116 13.0383 14.9787 12.8158 14.7942ZM33.2031 18.75C33.2031 19.493 32.8591 20.4546 32.4219 21.1844V18.3609C32.7494 18.3707 33.0469 18.3969 33.1711 18.4607C33.1962 18.555 33.207 18.6525 33.2031 18.75ZM17.1875 2.73438H26.5625C27.9089 2.7359 29.1996 3.2714 30.1516 4.22341C31.1036 5.17541 31.6391 6.46617 31.6406 7.8125V10.9759C25.229 9.37197 18.521 9.37197 12.1094 10.9759V7.8125C12.1109 6.46617 12.6464 5.17541 13.5984 4.22341C14.5504 3.2714 15.8412 2.7359 17.1875 2.73438ZM10.5789 18.4607C10.7032 18.3969 11.0006 18.3708 11.3281 18.3609V21.1844C10.8909 20.4546 10.5469 19.493 10.5469 18.75C10.543 18.6525 10.5538 18.555 10.5789 18.4607ZM13.6719 21.875V17.5705C14.6025 17.6636 15.548 17.3483 16.4533 17.2385C16.1705 17.3248 15.9307 17.5148 15.7821 17.7705C15.6335 18.0261 15.587 18.3285 15.652 18.617C15.717 18.9055 15.8887 19.1588 16.1326 19.326C16.3766 19.4932 16.6747 19.562 16.9672 19.5186C17.2597 19.4752 17.525 19.3228 17.7099 19.0919C17.8948 18.8611 17.9855 18.5689 17.964 18.274C17.9424 17.979 17.8102 17.7031 17.5937 17.5016C17.3773 17.3001 17.0926 17.1879 16.7969 17.1875C16.795 17.1875 16.7932 17.1875 16.7913 17.1875C20.1609 16.673 23.5891 16.673 26.9587 17.1875C26.9569 17.1875 26.955 17.1875 26.9531 17.1875C26.6574 17.1876 26.3727 17.2995 26.156 17.5008C25.9393 17.702 25.8068 17.9778 25.7849 18.2727C25.763 18.5676 25.8534 18.8599 26.038 19.0909C26.2227 19.3219 26.4878 19.4746 26.7803 19.5184C27.0727 19.5621 27.3709 19.4936 27.615 19.3267C27.8591 19.1598 28.0311 18.9067 28.0965 18.6183C28.1618 18.3299 28.1157 18.0274 27.9674 17.7716C27.819 17.5158 27.5795 17.3255 27.2967 17.2389C28.1991 17.3483 29.153 17.6636 30.0781 17.5709V21.875C30.0781 27.2872 24.3282 30.0781 21.875 30.0781C18.1609 29.8145 13.6377 26.4927 13.6719 21.875ZM47.2656 39.388L46.3706 39.4987C46.1649 39.5242 45.9697 39.6037 45.8048 39.7293C45.6398 39.8548 45.5112 40.0218 45.4319 40.2133L44.6408 42.1241C44.5616 42.3156 44.5345 42.5247 44.5623 42.73C44.5902 42.9354 44.672 43.1296 44.7994 43.2931L45.354 44.0043L44.0039 45.3535L43.2927 44.7989C43.1293 44.6715 42.935 44.5897 42.7296 44.5618C42.5243 44.534 42.3152 44.5611 42.1237 44.6403L40.2129 45.4313C40.0214 45.5107 39.8544 45.6393 39.7289 45.8043C39.6034 45.9692 39.5238 46.1644 39.4984 46.3701L39.388 47.2656H37.4805L37.3697 46.3706C37.3443 46.1649 37.2648 45.9697 37.1392 45.8047C37.0137 45.6398 36.8467 45.5111 36.6552 45.4318L34.7444 44.6408C34.5529 44.5615 34.3438 44.5344 34.1385 44.5623C33.9331 44.5902 33.7388 44.672 33.5754 44.7994L32.8642 45.354L31.5145 44.0039L32.0691 43.2927C32.1965 43.1293 32.2783 42.935 32.3062 42.7296C32.334 42.5243 32.3069 42.3152 32.2277 42.1237L31.4362 40.2129C31.3568 40.0214 31.2282 39.8544 31.0632 39.7289C30.8983 39.6033 30.7031 39.5238 30.4974 39.4983L29.6024 39.3876V37.4805L30.4974 37.3697C30.7031 37.3443 30.8983 37.2647 31.0632 37.1392C31.2282 37.0137 31.3568 36.8467 31.4362 36.6552L32.2277 34.7443C32.3069 34.5529 32.334 34.3438 32.3062 34.1385C32.2783 33.9331 32.1965 33.7388 32.0691 33.5754L31.5145 32.8642L32.8637 31.5149L33.5749 32.0695C33.7383 32.197 33.9326 32.2788 34.138 32.3066C34.3433 32.3345 34.5524 32.3074 34.7439 32.2281L36.6547 31.4366C36.8462 31.3573 37.0132 31.2286 37.1387 31.0637C37.2643 30.8988 37.3438 30.7035 37.3693 30.4979L37.48 29.6028H39.388L39.4988 30.4979C39.5242 30.7035 39.6037 30.8988 39.7293 31.0637C39.8548 31.2286 40.0218 31.3573 40.2133 31.4366L42.1241 32.2281C42.3156 32.3074 42.5247 32.3345 42.73 32.3066C42.9354 32.2788 43.1297 32.197 43.2931 32.0695L44.0043 31.5149L45.3535 32.8642L44.7989 33.5754C44.6715 33.7388 44.5897 33.9331 44.5618 34.1385C44.534 34.3438 44.5611 34.5529 44.6404 34.7443L45.4314 36.6552C45.5107 36.8467 45.6394 37.0137 45.8043 37.1392C45.9692 37.2647 46.1644 37.3443 46.3701 37.3697L47.2656 37.4805V39.388Z" fill="#018383"/>
<path d="M38.434 33.6553C37.3284 33.6553 36.257 34.0386 35.4024 34.74C34.5477 35.4413 33.9627 36.4173 33.747 37.5017C33.5313 38.586 33.6983 39.7116 34.2194 40.6866C34.7406 41.6617 35.5837 42.4259 36.6051 42.849C37.6266 43.2721 38.7631 43.3279 39.8211 43.007C40.8791 42.686 41.793 42.0082 42.4073 41.0889C43.0215 40.1696 43.298 39.0658 43.1896 37.9656C43.0812 36.8653 42.5947 35.8367 41.8129 35.0549C41.3702 34.6098 40.8436 34.2569 40.2637 34.0167C39.6837 33.7764 39.0618 33.6536 38.434 33.6553ZM40.1563 40.1562C39.8158 40.4967 39.3819 40.7286 38.9095 40.8226C38.4372 40.9166 37.9476 40.8684 37.5027 40.6841C37.0577 40.4998 36.6774 40.1877 36.4099 39.7873C36.1423 39.3868 35.9995 38.916 35.9995 38.4344C35.9995 37.9528 36.1423 37.4821 36.4099 37.0816C36.6774 36.6812 37.0577 36.3691 37.5027 36.1848C37.9476 36.0005 38.4372 35.9523 38.9095 36.0463C39.3819 36.1402 39.8158 36.3722 40.1563 36.7127C40.6122 37.1697 40.8683 37.7889 40.8683 38.4344C40.8683 39.08 40.6122 39.6992 40.1563 40.1562Z" fill="#018383"/>
</svg>
