<svg width="32" height="32" viewBox="0 0 32 32" fill="none" xmlns="http://www.w3.org/2000/svg">
<g clip-path="url(#clip0)">
<path d="M25 14C25 9.03714 20.9629 5 16 5C11.0371 5 7 9.03714 7 14C7 18.9629 11.0371 23 16 23C20.9629 23 25 18.9629 25 14ZM9.95723 14.8999L11.7571 13.0999L14.7144 16.0313L20.243 10.5285L22.0429 12.3285L14.7143 19.6828L9.95723 14.8999Z" fill="white"/>
<path d="M16 32L16.2625 31.9249C16.825 31.775 30.0625 27.7 30.0625 4.75V3.8125H29.125C22.8812 3.8125 16.5251 0.281188 16.45 0.24375L16 0L15.55 0.24375C15.4749 0.281188 9.11881 3.8125 2.875 3.8125H1.9375V4.75C1.9375 27.7 15.175 31.775 15.7375 31.9249L16 32ZM7.5625 14.125C7.5625 9.47494 11.3501 5.6875 16 5.6875C20.6499 5.6875 24.4375 9.47494 24.4375 14.125C24.4375 18.7749 20.6499 22.5625 16 22.5625C11.3501 22.5625 7.5625 18.7749 7.5625 14.125Z" fill="white"/>
</g>
<defs>
<clipPath id="clip0">
<rect width="32" height="32" fill="white"/>
</clipPath>
</defs>
</svg>
