<svg width="73" height="75" viewBox="0 0 73 75" fill="none" xmlns="http://www.w3.org/2000/svg">
<ellipse cx="36.5" cy="37.2756" rx="36.5" ry="37.2756" fill="#FDE2BF"/>
<g clip-path="url(#clip0)">
<path d="M42.7814 46.4733L36.7003 46.5965L39.7255 48.3021L42.7814 46.4733Z" fill="#F8A02B"/>
<path d="M40.936 48.3021L36.7003 46.5965L45.2139 46.4733L40.936 48.3021ZM38.9025 46.9858L40.927 47.8015L42.9714 46.9272L38.9025 46.9858Z" fill="#F8A02B"/>
<path d="M56.9381 38.4891C56.3906 37.8742 55.5189 37.7613 54.8527 38.2188L39.9355 48.8419C39.7226 48.9937 39.4477 48.9979 39.2311 48.8526L34.195 45.4729L30.1439 45.5676C29.7859 45.567 29.4917 45.2618 29.4759 44.8747C29.468 44.4845 29.7532 44.161 30.1137 44.1512L34.3499 44.0524H34.3684L42.8802 43.8474C43.6463 43.8262 44.2758 43.1864 44.3432 42.3601C44.3468 42.3158 44.3481 42.2712 44.3469 42.2266C44.3476 41.4015 43.7753 40.7077 43.0178 40.6152L27.1308 38.6387C25.509 38.4417 23.8672 38.6539 22.334 39.2589L14.2002 42.4997V52.1615L15.1316 51.2843C15.1661 51.2517 15.2038 51.2231 15.2438 51.1989C16.5783 50.3999 18.0783 49.9805 19.6034 49.98C20.5436 49.9793 21.478 50.1404 22.3716 50.4573L36.4703 55.4697C37.3014 55.766 38.2133 55.6115 38.9209 55.0546L56.705 41.1139C57.0839 40.8204 57.3261 40.3631 57.3686 39.861C57.4133 39.3581 57.2565 38.8586 56.9381 38.4891Z" fill="#F8A02B"/>
<path d="M37.6252 55.6176C37.3034 55.6172 36.9837 55.5633 36.678 55.4581L22.5821 50.6299C20.2951 49.8654 17.8075 50.1145 15.7018 51.3187C15.6797 51.331 15.659 51.346 15.6402 51.3631L14.2002 52.6707V42.4308L22.534 39.2304C24.1121 38.6297 25.8023 38.4192 27.4716 38.6156L43.3597 40.5186C44.2733 40.6257 44.9638 41.432 44.963 42.3909C44.964 42.4463 44.962 42.5017 44.9568 42.5568C44.8732 43.5132 44.1155 44.2523 43.195 44.2753L30.4298 44.5679C30.2388 44.5728 30.0874 44.7379 30.0913 44.9371C30.1137 45.1277 30.2623 45.275 30.4458 45.289L34.5862 45.1957L39.6991 48.5022C39.8129 48.5755 39.9573 48.5732 40.0691 48.4964L54.984 38.2619C55.7753 37.7344 56.8139 37.8641 57.4636 38.5713C57.8419 38.9945 58.0281 39.5665 57.9754 40.1425C57.9248 40.7184 57.6364 41.2428 57.1855 41.5793L39.405 55.0136C38.8882 55.4068 38.2649 55.6184 37.6252 55.6176ZM19.9112 49.541C20.884 49.5401 21.8507 49.7008 22.7751 50.0169L36.8711 54.8464C37.6073 55.1002 38.4157 54.9682 39.0424 54.492L56.8242 41.0597C57.1314 40.8309 57.3275 40.4736 57.3613 40.0815C57.3974 39.6889 57.2706 39.2991 57.0129 39.0106C56.5692 38.5279 55.8601 38.4398 55.3201 38.8002L40.4089 49.0342C40.0956 49.2492 39.6912 49.2549 39.3723 49.049L34.4142 45.8428L30.4558 45.9322H30.4404C29.9184 45.9261 29.4928 45.4942 29.4728 44.9502C29.4625 44.3963 29.8835 43.938 30.4145 43.9249L43.1796 43.6323C43.7888 43.6158 44.2889 43.1251 44.342 42.492C44.3436 42.4648 44.3436 42.4375 44.342 42.4103C44.3496 41.7726 43.8937 41.2321 43.2863 41.1587L27.3977 39.2549C25.8239 39.0707 24.2306 39.2688 22.7424 39.8338L14.8169 42.8791V51.2582L15.2375 50.8768C15.2887 50.8307 15.3443 50.7902 15.4034 50.7558C16.7834 49.9603 18.3343 49.5423 19.9112 49.541Z" fill="#F8A02B"/>
<path d="M46.748 42.6743C46.7491 42.7473 46.7449 42.8204 46.7354 42.8931C46.7128 43.0741 46.6618 43.2527 46.5833 43.4255L54.3355 39.7485C53.64 39.19 52.533 39.0065 51.569 39.2901L45.822 41.0075C46.4166 41.4565 46.7483 42.0535 46.748 42.6743Z" fill="#F8A02B"/>
<path d="M45.2393 44.0351L45.5261 43.1822C45.5875 43.0006 45.6274 42.8128 45.6451 42.6224C45.6527 42.5461 45.6559 42.4694 45.6549 42.3928C45.6537 41.7418 45.3938 41.1163 44.9293 40.6463L44.6058 40.3156L50.0783 38.1192C51.0501 37.7326 52.1675 37.9812 52.8683 38.7398L53.1193 39.0109L45.2393 44.0351ZM45.6924 40.5565C46.0894 41.0914 46.303 41.7337 46.3027 42.3928C46.3027 42.4624 46.3027 42.5371 46.2969 42.6093L52.1014 38.9067C51.5875 38.5419 50.9149 38.4622 50.3256 38.6965L45.6924 40.5565Z" fill="#F8A02B"/>
<path d="M45.6542 19.6564C44.5127 18.4272 42.9303 17.7503 41.1986 17.7503C39.2656 17.7503 37.59 18.626 36.353 20.2828C36.2603 20.4069 36.1735 20.5312 36.0922 20.6541C36.0109 20.5311 35.9241 20.4069 35.8314 20.2828C34.5944 18.626 32.9188 17.7503 30.9859 17.7503C29.2541 17.7503 27.6717 18.4272 26.5303 19.6564C25.447 20.8229 24.8504 22.3823 24.8504 24.0475C24.8504 25.857 25.5832 27.5268 27.1565 29.3025C28.5293 30.8517 30.4984 32.4441 32.7784 34.2881C33.621 34.9695 34.4923 35.6741 35.4181 36.4429C35.6116 36.6035 35.8518 36.6839 36.0922 36.6839C36.3325 36.6839 36.5728 36.6035 36.7662 36.4429C37.6919 35.6742 38.5631 34.9697 39.4057 34.2884C40.87 33.1041 42.1346 32.0814 43.2319 31.0894C45.3626 29.1633 47.3341 26.9771 47.3341 24.0476C47.3341 22.3824 46.7375 20.823 45.6542 19.6564Z" fill="#F8A02B"/>
</g>
<defs>
<clipPath id="clip0">
<rect width="43.784" height="40.2339" fill="white" transform="translate(14.2002 15.3836)"/>
</clipPath>
</defs>
</svg>
