<svg width="5" height="18" viewBox="0 0 5 18" fill="none" xmlns="http://www.w3.org/2000/svg">
<path fill-rule="evenodd" clip-rule="evenodd" d="M2.04013 4C3.13897 4 4.03802 3.1 4.03802 2C4.03802 0.9 3.13897 0 2.04013 0C0.941289 0 0.0422363 0.9 0.0422363 2C0.0422363 3.1 0.941289 4 2.04013 4ZM4.03802 9C4.03802 10.1 3.13897 11 2.04013 11C0.941289 11 0.0422363 10.1 0.0422363 9C0.0422363 7.9 0.941289 7 2.04013 7C3.13897 7 4.03802 7.9 4.03802 9ZM0.0422363 16C0.0422363 14.9 0.941289 14 2.04013 14C3.13897 14 4.03802 14.9 4.03802 16C4.03802 17.1 3.13897 18 2.04013 18C0.941289 18 0.0422363 17.1 0.0422363 16Z" fill="black"/>
</svg>
