<svg width="21" height="5" viewBox="0 0 21 5" fill="none" xmlns="http://www.w3.org/2000/svg">
<path fill-rule="evenodd" clip-rule="evenodd" d="M5.17383 2.50001C5.17383 1.37814 4.16133 0.460243 2.92383 0.460243C1.68633 0.460243 0.673828 1.37814 0.673828 2.50001C0.673828 3.62188 1.68633 4.53977 2.92383 4.53977C4.16133 4.53977 5.17383 3.62188 5.17383 2.50001ZM10.7988 0.460243C12.0363 0.460243 13.0488 1.37814 13.0488 2.50001C13.0488 3.62188 12.0363 4.53977 10.7988 4.53977C9.56133 4.53977 8.54883 3.62188 8.54883 2.50001C8.54883 1.37814 9.56133 0.460243 10.7988 0.460243ZM18.6738 4.53977C17.4363 4.53977 16.4238 3.62188 16.4238 2.50001C16.4238 1.37814 17.4363 0.460243 18.6738 0.460243C19.9113 0.460243 20.9238 1.37814 20.9238 2.50001C20.9238 3.62188 19.9113 4.53977 18.6738 4.53977Z" fill="black"/>
</svg>
