<svg width="73" height="76" viewBox="0 0 73 76" fill="none" xmlns="http://www.w3.org/2000/svg">
<ellipse cx="36.5" cy="38.2118" rx="36.5" ry="37.2756" fill="#FDE2BF"/>
<g clip-path="url(#clip0)">
<path d="M42.7814 47.4096L36.7003 47.5328L39.7255 49.2384L42.7814 47.4096Z" fill="#F8A02B"/>
<path d="M40.936 49.2384L36.7003 47.5327L45.2139 47.4096L40.936 49.2384ZM38.9025 47.922L40.9269 48.7377L42.9714 47.8634L38.9025 47.922Z" fill="#F8A02B"/>
<path d="M56.9381 39.4254C56.3906 38.8105 55.5189 38.6975 54.8527 39.1551L39.9355 49.7782C39.7226 49.93 39.4477 49.9342 39.2311 49.7888L34.195 46.4091L30.1439 46.5039C29.7859 46.5032 29.4917 46.198 29.4759 45.811C29.468 45.4208 29.7532 45.0973 30.1137 45.0874L34.3499 44.9886H34.3684L42.8802 44.7837C43.6463 44.7625 44.2758 44.1226 44.3432 43.2964C44.3468 43.252 44.3481 43.2075 44.3469 43.1629C44.3476 42.3378 43.7753 41.644 43.0177 41.5515L27.1308 39.575C25.509 39.3779 23.8672 39.5902 22.3339 40.1951L14.2002 43.4359V53.0977L15.1315 52.2206C15.1661 52.1879 15.2038 52.1593 15.2438 52.1351C16.5783 51.3361 18.0782 50.9167 19.6034 50.9162C20.5436 50.9156 21.478 51.0767 22.3716 51.3935L36.4703 56.406C37.3014 56.7023 38.2133 56.5478 38.9209 55.9908L56.705 42.0501C57.0839 41.7566 57.3261 41.2993 57.3686 40.7972C57.4133 40.2943 57.2565 39.7949 56.9381 39.4254Z" fill="#F8A02B"/>
<path d="M37.6252 56.5538C37.3034 56.5535 36.9836 56.4996 36.678 56.3944L22.582 51.5662C20.2951 50.8017 17.8075 51.0507 15.7018 52.255C15.6797 52.2673 15.659 52.2822 15.6401 52.2994L14.2002 53.6069V43.3671L22.5339 40.1667C24.1121 39.566 25.8023 39.3555 27.4716 39.5518L43.3596 41.4549C44.2733 41.562 44.9638 42.3683 44.963 43.3271C44.964 43.3825 44.9619 43.438 44.9568 43.4931C44.8732 44.4494 44.1155 45.1885 43.195 45.2116L30.4298 45.5042C30.2388 45.5091 30.0874 45.6741 30.0912 45.8734C30.1137 46.0639 30.2623 46.2113 30.4458 46.2252L34.5862 46.1319L39.699 49.4384C39.8129 49.5118 39.9573 49.5095 40.0691 49.4327L54.984 39.1982C55.7753 38.6707 56.8139 38.8003 57.4636 39.5075C57.8418 39.9308 58.0281 40.5028 57.9754 41.0787C57.9248 41.6547 57.6364 42.1791 57.1854 42.5155L39.4049 55.9499C38.8882 56.3431 38.2649 56.5546 37.6252 56.5538ZM19.9112 50.4772C20.884 50.4764 21.8507 50.637 22.7751 50.9532L36.8711 55.7826C37.6073 56.0365 38.4157 55.9045 39.0424 55.4283L56.8242 41.9959C57.1314 41.7671 57.3275 41.4099 57.3613 41.0177C57.3974 40.6252 57.2706 40.2354 57.0129 39.9468C56.5692 39.4641 55.8601 39.3761 55.3201 39.7365L40.4089 49.9704C40.0956 50.1854 39.6912 50.1912 39.3723 49.9853L34.4142 46.7791L30.4558 46.8685H30.4404C29.9184 46.8623 29.4928 46.4304 29.4728 45.8864C29.4625 45.3325 29.8835 44.8742 30.4145 44.8612L43.1796 44.5686C43.7888 44.552 44.2889 44.0613 44.342 43.4283C44.3436 43.4011 44.3436 43.3738 44.342 43.3466C44.3496 42.7089 43.8937 42.1684 43.2863 42.095L27.3977 40.1912C25.8239 40.007 24.2305 40.205 22.7424 40.77L14.8169 43.8154V52.1944L15.2374 51.813C15.2887 51.7669 15.3442 51.7264 15.4033 51.6921C16.7834 50.8966 18.3343 50.4786 19.9112 50.4772Z" fill="#F8A02B"/>
<path d="M46.7479 43.6105C46.7491 43.6836 46.7449 43.7566 46.7354 43.8293C46.7128 44.0103 46.6618 44.189 46.5832 44.3617L54.3355 40.6847C53.64 40.1262 52.533 39.9427 51.569 40.2263L45.822 41.9437C46.4166 42.3928 46.7482 42.9898 46.7479 43.6105Z" fill="#F8A02B"/>
<path d="M45.2393 44.9713L45.526 44.1184C45.5874 43.9368 45.6274 43.749 45.6451 43.5587C45.6527 43.4824 45.6558 43.4057 45.6548 43.329C45.6537 42.678 45.3938 42.0526 44.9293 41.5825L44.6058 41.2518L50.0783 39.0554C51.0501 38.6688 52.1675 38.9175 52.8683 39.676L53.1193 39.9472L45.2393 44.9713ZM45.6924 41.4927C46.0894 42.0276 46.303 42.6699 46.3027 43.329C46.3027 43.3987 46.3027 43.4733 46.2969 43.5455L52.1014 39.8429C51.5875 39.4781 50.9149 39.3985 50.3256 39.6327L45.6924 41.4927Z" fill="#F8A02B"/>
<path d="M37.6125 16.3198C43.4898 16.3198 48.2544 20.9597 48.2544 26.6832C48.2544 32.4066 43.4899 37.0464 37.6125 37.0464C31.7383 37.039 26.9782 32.4036 26.9705 26.6832C26.9705 20.9597 31.7352 16.3198 37.6125 16.3198ZM35.2495 20.9257H34.0118V24.5241H32.5715V25.9634H34.0118V27.4028H32.5715V28.8421H34.0118V32.4405H35.4521V28.8421H37.9842L39.9754 32.4405H41.2131V28.8421H42.6534V27.4028H41.2131V25.9634H42.6534V24.5241H41.2131V20.9257H39.7729V24.5241H37.2408L35.2495 20.9257ZM36.3912 25.9634L37.1877 27.4028H35.4521V25.9634H36.3912ZM39.7729 25.9634V27.4028H38.8337L38.0372 25.9634H39.7729Z" fill="#F8A02B"/>
</g>
<defs>
<clipPath id="clip0">
<rect width="43.784" height="40.2339" fill="white" transform="translate(14.2002 16.3198)"/>
</clipPath>
</defs>
</svg>
