<svg width="32" height="32" viewBox="0 0 32 32" fill="none" xmlns="http://www.w3.org/2000/svg">
<path d="M12.061 13.2213C13.2752 13.2213 14.2595 12.237 14.2595 11.0228C14.2595 9.80863 13.2752 8.82434 12.061 8.82434C10.8468 8.82434 9.86255 9.80863 9.86255 11.0228C9.86255 12.237 10.8468 13.2213 12.061 13.2213Z" fill="#F8A02B"/>
<path d="M30.1069 19.1143C29.0687 18.1373 27.7557 17.496 26.3206 17.3128V6.13725C26.3206 4.94641 25.8321 3.87771 25.0687 3.08382C24.2748 2.28992 23.2061 1.83191 22.0153 1.83191H4.30534C3.1145 1.83191 2.0458 2.32046 1.25191 3.08382C0.458015 3.87771 0 4.94641 0 6.13725V20.2136V21.5266V24.3663C0 25.5571 0.48855 26.6258 1.25191 27.4197C2.0458 28.2136 3.1145 28.6716 4.30534 28.6716H21.4351C22.5649 29.5876 23.9695 30.1678 25.5267 30.1678C27.3282 30.1678 28.9466 29.435 30.1069 28.2747C31.2672 27.1143 32 25.496 32 23.6945C32 21.893 31.2672 20.2747 30.1069 19.1143ZM1.61832 6.13725C1.61832 5.40443 1.92366 4.73267 2.41221 4.27466C2.90076 3.78611 3.57252 3.48076 4.30534 3.48076H22.0153C22.7481 3.48076 23.4198 3.78611 23.9084 4.27466C24.3969 4.76321 24.7023 5.43496 24.7023 6.16779V15.6945L20.1832 11.1754C19.8779 10.8701 19.3588 10.8395 19.0229 11.1754L12.2137 18.0151L7.60305 13.3739C7.29771 13.0685 6.77863 13.038 6.44275 13.3739L1.61832 18.2594V6.13725ZM4.27481 27.1143V27.0533C3.54198 27.0533 2.87023 26.7479 2.38168 26.2594C1.92366 25.7708 1.61832 25.0991 1.61832 24.3663V21.5266V20.58L7.0229 15.1449L11.6336 19.7556C11.9389 20.0609 12.458 20.0609 12.7939 19.7556L19.6031 12.9159L24.0611 17.4044C23.9695 17.435 23.8779 17.4655 23.7863 17.496C23.6641 17.5266 23.542 17.5571 23.3893 17.6182C23.2672 17.6487 23.145 17.7098 23.0229 17.7403C22.9313 17.7708 22.8702 17.8014 22.7786 17.8624C22.6565 17.9235 22.5649 17.954 22.4733 18.0151C22.3206 18.1067 22.1679 18.1983 22.0153 18.2899C21.9237 18.351 21.8626 18.3815 21.771 18.4426C21.7099 18.4731 21.6794 18.5037 21.6183 18.5342C21.3435 18.7174 21.0992 18.9311 20.8855 19.1754C19.7252 20.3357 18.9924 21.954 18.9924 23.7556C18.9924 24.2136 19.0534 24.6411 19.145 25.0991C19.1756 25.2212 19.2061 25.3128 19.2366 25.435C19.3282 25.7403 19.4198 26.0456 19.542 26.351V26.3815C19.6641 26.6258 19.7863 26.9006 19.9389 27.1143H4.27481ZM28.916 27.1143C28.0305 27.9998 26.8397 28.5189 25.4962 28.5189C24.2137 28.5189 23.0229 27.9998 22.1679 27.1754C22.0458 27.0533 21.9237 26.9006 21.8015 26.7785C21.7099 26.6869 21.6183 26.5647 21.5267 26.4731C21.4046 26.3205 21.313 26.1373 21.2214 25.954C21.1603 25.8319 21.0992 25.7403 21.0382 25.6182C20.9771 25.4655 20.916 25.2823 20.8855 25.0991C20.855 24.9769 20.7939 24.8243 20.7634 24.7021C20.7023 24.3968 20.6718 24.0609 20.6718 23.725C20.6718 22.3815 21.2214 21.1907 22.0763 20.3052C22.9313 19.4197 24.1527 18.9006 25.4962 18.9006C26.8397 18.9006 28.0305 19.4502 28.916 20.3052C29.8015 21.1907 30.3206 22.3815 30.3206 23.725C30.3206 25.038 29.771 26.2289 28.916 27.1143Z" fill="#F8A02B"/>
<path d="M26.0761 20.4272C26.0151 20.3661 25.9235 20.3051 25.8013 20.244C25.7097 20.2135 25.6181 20.1829 25.5265 20.1829C25.496 20.1829 25.496 20.1829 25.496 20.1829C25.4655 20.1829 25.4655 20.1829 25.4655 20.1829C25.3739 20.1829 25.2822 20.2135 25.1906 20.244C25.099 20.2745 25.0074 20.3356 24.9158 20.4272L23.0227 22.3203C22.7174 22.6257 22.7174 23.1448 23.0227 23.4806C23.3281 23.786 23.8471 23.786 24.183 23.4806L24.6716 22.9921V26.3509C24.6716 26.8089 25.038 27.1753 25.496 27.1753C25.954 27.1753 26.3204 26.8089 26.3204 26.3509V22.9921L26.809 23.4806C27.1143 23.786 27.6334 23.786 27.9693 23.4806C28.2746 23.1753 28.2746 22.6562 27.9693 22.3203L26.0761 20.4272Z" fill="#F8A02B"/>
</svg>
